<?xml version="1.0" encoding="UTF-8"?>
<!DOCTYPE svg PUBLIC "-//W3C//DTD SVG 1.1//EN" "http://www.w3.org/Graphics/SVG/1.1/DTD/svg11.dtd">
<!-- Creator: CorelDRAW 2018 (64 Bit) -->
<svg xmlns="http://www.w3.org/2000/svg" xml:space="preserve" width="124px" height="118px" version="1.1" style="shape-rendering:geometricPrecision; text-rendering:geometricPrecision; image-rendering:optimizeQuality; fill-rule:evenodd; clip-rule:evenodd"
viewBox="0 0 7.752 7.43"
 xmlns:xlink="http://www.w3.org/1999/xlink">
 <defs>
  <style type="text/css">
   <![CDATA[
    .fil0 {fill:#14315D}
    .fil1 {fill:white}
    .fil2 {fill:#000038;fill-rule:nonzero}
    .fil3 {fill:url(#id0)}
    .fil4 {fill:url(#id1);fill-rule:nonzero}
   ]]>
  </style>
  <linearGradient id="id0" gradientUnits="userSpaceOnUse" x1="3.006" y1="3.76" x2="5.172" y2="3.76">
   <stop offset="0" style="stop-opacity:1; stop-color:#D69BFF"/>
   <stop offset="1" style="stop-opacity:1; stop-color:#FF35E0"/>
  </linearGradient>
  <linearGradient id="id1" gradientUnits="userSpaceOnUse" xlink:href="#id0" x1="3.037" y1="3.917" x2="5.141" y2="3.917">
  </linearGradient>
 </defs>
 <g id="Camada_x0020_1">
  <metadata id="CorelCorpID_0Corel-Layer"/>
  <circle class="fil0" cx="4.037" cy="3.715" r="3.715"/>
  <circle class="fil1" cx="4.037" cy="3.715" r="3.109"/>
  <circle class="fil1" cx="1.226" cy="1.393" r="1.226"/>
  <path class="fil2" d="M0.846 1.473c0,-0.212 0.045,-0.371 0.135,-0.475 0.09,-0.103 0.225,-0.155 0.404,-0.155 0.061,0 0.109,0.003 0.144,0.011l0 0.181c-0.044,-0.01 -0.087,-0.015 -0.129,-0.015 -0.078,0 -0.142,0.012 -0.191,0.035 -0.049,0.024 -0.086,0.059 -0.111,0.105 -0.024,0.046 -0.039,0.111 -0.043,0.196l0.009 0c0.049,-0.083 0.127,-0.125 0.233,-0.125 0.096,0 0.172,0.03 0.226,0.091 0.055,0.06 0.082,0.143 0.082,0.249 0,0.115 -0.032,0.206 -0.097,0.273 -0.065,0.067 -0.155,0.1 -0.269,0.1 -0.08,0 -0.149,-0.018 -0.208,-0.055 -0.059,-0.037 -0.105,-0.09 -0.137,-0.161 -0.032,-0.07 -0.048,-0.155 -0.048,-0.255zm0.388 0.289c0.049,0 0.086,-0.016 0.112,-0.049 0.026,-0.032 0.039,-0.078 0.039,-0.139 0,-0.052 -0.012,-0.093 -0.036,-0.123 -0.025,-0.03 -0.061,-0.045 -0.11,-0.045 -0.046,0 -0.086,0.014 -0.118,0.044 -0.033,0.03 -0.049,0.065 -0.049,0.105 0,0.058 0.015,0.107 0.046,0.147 0.03,0.04 0.069,0.06 0.116,0.06z"/>
  <path class="fil3" d="M5.147 2.559c0.018,0.015 0.027,0.038 0.025,0.062 -0.017,0.137 -0.077,0.306 -0.13,0.432 -0.155,0.368 -0.394,0.707 -0.664,0.999l0 0.147c0.359,0.192 0.434,0.68 0.143,0.971 -0.383,0.384 -1.043,0.11 -1.043,-0.432 0,-0.226 0.124,-0.433 0.322,-0.539l0 -0.147c-0.27,-0.293 -0.51,-0.632 -0.665,-1.001 -0.052,-0.123 -0.113,-0.296 -0.129,-0.43 -0.002,-0.022 0.006,-0.044 0.022,-0.06 0.292,-0.275 0.666,-0.383 1.06,-0.39 0.154,-0.003 0.347,0.027 0.496,0.071 0.212,0.062 0.403,0.166 0.563,0.317zm-1.047 1.635c0.3,0 0.543,0.243 0.543,0.543 0,0.3 -0.243,0.543 -0.543,0.543 -0.3,0 -0.543,-0.243 -0.543,-0.543 0,-0.3 0.243,-0.543 0.543,-0.543zm-0.577 -1.78c-0.136,0.053 -0.261,0.127 -0.371,0.225 0.026,0.147 0.088,0.307 0.149,0.44 0.148,0.321 0.361,0.616 0.6,0.875l0.056 0c-0.098,-0.218 -0.18,-0.453 -0.249,-0.68 -0.049,-0.159 -0.093,-0.32 -0.128,-0.482l-0.057 -0.378zm0.926 0.396c-0.103,-0.049 -0.25,-0.06 -0.359,-0.06 -0.11,0 -0.258,0.011 -0.362,0.06 0.034,0.146 0.074,0.291 0.118,0.434 0.067,0.219 0.147,0.449 0.243,0.659 0.096,-0.21 0.175,-0.44 0.243,-0.659 0.044,-0.143 0.084,-0.288 0.117,-0.434zm-0.508 1.285l0 0.05c0.097,-0.024 0.199,-0.024 0.296,0l0 -0.05 -0.296 0zm1.085 -1.456c-0.109,-0.097 -0.233,-0.171 -0.368,-0.224 -0.011,0.125 -0.033,0.25 -0.06,0.373l-0.087 0.347c-0.077,0.272 -0.174,0.56 -0.291,0.819l0.057 0c0.239,-0.259 0.452,-0.554 0.6,-0.875 0.061,-0.133 0.122,-0.293 0.149,-0.44zm-0.547 0.031c0.019,-0.099 0.034,-0.2 0.041,-0.3 -0.281,-0.077 -0.581,-0.077 -0.862,0 0.006,0.1 0.022,0.201 0.041,0.3 0.209,-0.082 0.571,-0.082 0.78,0z"/>
  <path class="fil4" d="M4.089 4.304c0.12,0 0.228,0.048 0.307,0.127l0 0 0 0c0.079,0.079 0.127,0.187 0.127,0.307 0,0.12 -0.048,0.229 -0.127,0.307 -0.079,0.079 -0.187,0.127 -0.307,0.127 -0.12,0 -0.229,-0.048 -0.307,-0.127l-0.002 -0.002c-0.078,-0.079 -0.125,-0.186 -0.125,-0.305 0,-0.12 0.048,-0.228 0.127,-0.307l0 0c0.079,-0.079 0.187,-0.127 0.307,-0.127zm0.782 0.172c0.033,-0.019 0.075,-0.008 0.095,0.025 0.019,0.033 0.007,0.076 -0.026,0.095 -0.033,0.019 -0.075,0.008 -0.095,-0.025 -0.019,-0.034 -0.007,-0.076 0.026,-0.095zm-0.24 -0.355c0.019,-0.033 0.061,-0.044 0.094,-0.025 0.034,0.019 0.045,0.061 0.026,0.095 -0.019,0.033 -0.062,0.044 -0.095,0.025 -0.033,-0.019 -0.045,-0.062 -0.025,-0.095zm-1.168 0.084c-0.033,-0.019 -0.044,-0.061 -0.025,-0.095 0.019,-0.033 0.061,-0.044 0.095,-0.025 0.033,0.019 0.044,0.062 0.025,0.095 -0.019,0.033 -0.062,0.044 -0.095,0.025zm-0.187 0.386c-0.038,0 -0.069,-0.032 -0.069,-0.07 0,-0.038 0.031,-0.069 0.069,-0.069 0.039,0 0.07,0.031 0.07,0.069 0,0.038 -0.031,0.07 -0.07,0.07zm0.031 0.427c-0.033,0.019 -0.076,0.008 -0.095,-0.026 -0.019,-0.033 -0.008,-0.075 0.026,-0.094 0.033,-0.02 0.075,-0.008 0.094,0.025 0.02,0.033 0.008,0.076 -0.025,0.095zm0.24 0.354c-0.019,0.034 -0.061,0.045 -0.095,0.026 -0.033,-0.019 -0.044,-0.062 -0.025,-0.095 0.019,-0.033 0.062,-0.044 0.095,-0.025 0.033,0.019 0.044,0.061 0.025,0.094zm0.386 0.187c0,0.039 -0.031,0.07 -0.07,0.07 -0.038,0 -0.069,-0.031 -0.069,-0.07 0,-0.038 0.031,-0.069 0.069,-0.069 0.039,0 0.07,0.031 0.07,0.069zm0.427 -0.03c0.019,0.033 0.008,0.075 -0.026,0.095 -0.033,0.019 -0.075,0.007 -0.094,-0.026 -0.019,-0.033 -0.008,-0.075 0.025,-0.095 0.033,-0.019 0.076,-0.007 0.095,0.026zm0.355 -0.24c0.033,0.019 0.044,0.061 0.025,0.094 -0.019,0.033 -0.062,0.045 -0.095,0.026 -0.033,-0.019 -0.044,-0.062 -0.025,-0.095 0.019,-0.033 0.061,-0.045 0.095,-0.025zm0.187 -0.386c0.038,0 0.069,0.031 0.069,0.07 0,0.038 -0.031,0.069 -0.069,0.069 -0.039,0 -0.07,-0.031 -0.07,-0.069 0,-0.039 0.031,-0.07 0.07,-0.07zm-0.89 -0.304c-0.022,0 -0.04,-0.018 -0.04,-0.04 0,-0.021 0.018,-0.039 0.04,-0.039l0.077 0c0.022,0 0.039,0.018 0.039,0.039l0 0.375c0,0.022 -0.017,0.04 -0.039,0.04 -0.022,0 -0.039,-0.018 -0.039,-0.04l0 -0.335 -0.038 0zm-0.401 -1.814c-0.001,-0.002 -0.001,-0.003 -0.001,-0.005 -0.032,-0.148 -0.054,-0.288 -0.062,-0.408 -0.145,0.051 -0.294,0.131 -0.43,0.255 0.018,0.11 0.138,0.677 0.769,1.359l0.119 0c-0.097,-0.21 -0.217,-0.533 -0.309,-0.859 -0.033,-0.115 -0.062,-0.231 -0.086,-0.342zm0.065 -0.071c0.161,-0.078 0.398,-0.074 0.413,-0.074 0.015,0 0.252,-0.004 0.413,0.074 0.027,-0.134 0.045,-0.26 0.051,-0.367 -0.175,-0.051 -0.34,-0.064 -0.464,-0.067 -0.125,0.003 -0.289,0.016 -0.464,0.067 0.005,0.107 0.024,0.233 0.051,0.367zm0.892 0.066c0,0.002 -0.001,0.003 -0.001,0.005 -0.024,0.111 -0.053,0.227 -0.086,0.342 -0.092,0.326 -0.212,0.649 -0.309,0.859l0.119 0c0.631,-0.682 0.751,-1.249 0.769,-1.359 -0.136,-0.124 -0.285,-0.204 -0.431,-0.255 -0.007,0.12 -0.029,0.26 -0.061,0.408zm-0.083 0.013c-0.144,-0.081 -0.395,-0.074 -0.395,-0.074l0 -0.001 -0.002 0.001c-0.001,0 -0.251,-0.007 -0.395,0.074 0.022,0.102 0.049,0.207 0.079,0.312 0.095,0.336 0.219,0.668 0.317,0.872 0.098,-0.204 0.222,-0.536 0.317,-0.872 0.03,-0.105 0.057,-0.21 0.079,-0.312zm-0.654 1.247c-0.722,-0.779 -0.793,-1.421 -0.794,-1.423l0 0c-0.001,-0.012 0.003,-0.024 0.012,-0.033 0.174,-0.163 0.369,-0.258 0.553,-0.312 0.183,-0.054 0.356,-0.067 0.486,-0.07l0 0 0.002 0c0.13,0.003 0.302,0.016 0.486,0.07 0.183,0.054 0.378,0.148 0.55,0.31 0.01,0.008 0.016,0.021 0.015,0.035 -0.001,0.002 -0.073,0.644 -0.794,1.423l0 0.173c0,0.002 0,0.003 -0.001,0.005 0.057,0.028 0.109,0.066 0.153,0.11 0.105,0.105 0.17,0.25 0.17,0.41 0,0.16 -0.065,0.305 -0.17,0.41 -0.105,0.105 -0.25,0.17 -0.41,0.17 -0.16,0 -0.305,-0.065 -0.41,-0.17 -0.105,-0.105 -0.17,-0.25 -0.17,-0.41 0,-0.16 0.065,-0.305 0.17,-0.41 0.044,-0.044 0.096,-0.082 0.152,-0.11 0,-0.002 0,-0.003 0,-0.005l0 -0.173zm0.437 0.146l0 -0.122 -0.359 0 0 0.122c0.057,-0.018 0.117,-0.028 0.18,-0.028 0.063,0 0.123,0.01 0.179,0.028zm0.176 0.197c-0.091,-0.09 -0.217,-0.147 -0.355,-0.147 -0.139,0 -0.264,0.057 -0.355,0.147 -0.091,0.091 -0.147,0.216 -0.147,0.355 0,0.139 0.056,0.264 0.147,0.355 0.091,0.091 0.216,0.147 0.355,0.147 0.138,0 0.264,-0.056 0.355,-0.147 0.09,-0.091 0.147,-0.216 0.147,-0.355 0,-0.139 -0.057,-0.264 -0.147,-0.355zm-0.103 0.103c-0.065,-0.064 -0.154,-0.104 -0.252,-0.104 -0.098,0 -0.187,0.04 -0.252,0.104 -0.064,0.065 -0.104,0.154 -0.104,0.252 0,0.097 0.039,0.186 0.102,0.25l0.002 0.002c0.065,0.064 0.154,0.104 0.252,0.104 0.098,0 0.187,-0.04 0.252,-0.104 0.064,-0.065 0.104,-0.154 0.104,-0.252 0,-0.098 -0.04,-0.187 -0.104,-0.252l0 0z"/>
 </g>
</svg>
