<?xml version="1.0" encoding="UTF-8"?>
<!DOCTYPE svg PUBLIC "-//W3C//DTD SVG 1.1//EN" "http://www.w3.org/Graphics/SVG/1.1/DTD/svg11.dtd">
<!-- Creator: CorelDRAW 2018 (64 Bit) -->
<svg xmlns="http://www.w3.org/2000/svg" xml:space="preserve" width="124px" height="118px" version="1.1" style="shape-rendering:geometricPrecision; text-rendering:geometricPrecision; image-rendering:optimizeQuality; fill-rule:evenodd; clip-rule:evenodd"
viewBox="0 0 9.757 9.351"
 xmlns:xlink="http://www.w3.org/1999/xlink">
 <defs>
  <style type="text/css">
   <![CDATA[
    .fil0 {fill:#14315D}
    .fil1 {fill:white}
    .fil2 {fill:#000038;fill-rule:nonzero}
    .fil3 {fill:url(#id0)}
    .fil4 {fill:url(#id1);fill-rule:nonzero}
   ]]>
  </style>
  <linearGradient id="id0" gradientUnits="userSpaceOnUse" x1="3.152" y1="4.654" x2="7.096" y2="4.654">
   <stop offset="0" style="stop-opacity:1; stop-color:#8273D8"/>
   <stop offset="1" style="stop-opacity:1; stop-color:#FF35E0"/>
  </linearGradient>
  <linearGradient id="id1" gradientUnits="userSpaceOnUse" xlink:href="#id0" x1="3.192" y1="4.654" x2="7.057" y2="4.654">
  </linearGradient>
 </defs>
 <g id="Camada_x0020_1">
  <metadata id="CorelCorpID_0Corel-Layer"/>
  <circle class="fil0" cx="5.082" cy="4.676" r="4.676"/>
  <circle class="fil1" cx="5.082" cy="4.676" r="3.913"/>
  <circle class="fil1" cx="1.542" cy="1.754" r="1.542"/>
  <path class="fil2" d="M1.566 1.557c0.131,0 0.235,0.036 0.313,0.11 0.077,0.073 0.115,0.174 0.115,0.302 0,0.151 -0.046,0.267 -0.139,0.348 -0.093,0.082 -0.227,0.123 -0.4,0.123 -0.15,0 -0.272,-0.025 -0.364,-0.074l0 -0.247c0.048,0.026 0.105,0.047 0.17,0.063 0.065,0.016 0.126,0.025 0.184,0.025 0.175,0 0.262,-0.072 0.262,-0.215 0,-0.136 -0.091,-0.204 -0.271,-0.204 -0.033,0 -0.069,0.003 -0.108,0.01 -0.04,0.006 -0.072,0.013 -0.097,0.021l-0.114 -0.062 0.051 -0.689 0.734 0 0 0.243 -0.483 0 -0.025 0.265 0.032 -0.006c0.038,-0.009 0.084,-0.013 0.14,-0.013z"/>
  <path class="fil3" d="M3.626 3.919l0 -0.176c0,-0.079 0.031,-0.154 0.087,-0.21l0 0c0.056,-0.056 0.131,-0.087 0.21,-0.087l0.176 0 0 -0.177c0,-0.079 0.032,-0.154 0.087,-0.209l0.001 -0.001c0.055,-0.055 0.13,-0.087 0.209,-0.087l2.403 0c0.079,0 0.154,0.032 0.21,0.087l0 0.001c0.056,0.055 0.087,0.13 0.087,0.209l0 1.823c0,0.079 -0.031,0.154 -0.087,0.21l0 0c-0.056,0.056 -0.131,0.087 -0.21,0.087l-0.176 0 0 0.177c0,0.079 -0.032,0.154 -0.087,0.209l-0.001 0.001c-0.055,0.055 -0.13,0.087 -0.209,0.087l-0.177 0 0 0.176c0,0.079 -0.031,0.154 -0.087,0.21l0 0c-0.056,0.056 -0.131,0.087 -0.21,0.087l-2.403 0c-0.079,0 -0.154,-0.031 -0.209,-0.087l-0.001 0c-0.055,-0.056 -0.087,-0.131 -0.087,-0.21l0 -1.823c0,-0.079 0.032,-0.154 0.087,-0.209l0.001 -0.001c0.055,-0.055 0.13,-0.087 0.209,-0.087l0.177 0zm1.1 2.22l1.126 0c0.027,0 0.052,-0.011 0.071,-0.029l0 0c0.019,-0.019 0.029,-0.044 0.029,-0.071l0 -0.127 -0.522 -0.561 -0.445 0.498c-0.002,0.002 -0.004,0.005 -0.006,0.007l-0.253 0.283zm-1.377 -0.822l0 0.722c0,0.027 0.011,0.052 0.03,0.071l0 0c0.019,0.018 0.044,0.029 0.07,0.029l1.013 0 0.323 -0.362 -0.204 -0.319 -0.516 0c-0.071,0 -0.139,-0.028 -0.19,-0.078 -0.05,-0.051 -0.079,-0.119 -0.079,-0.19 0,-0.072 0.029,-0.14 0.079,-0.19 0.034,-0.034 0.075,-0.058 0.121,-0.07 0.002,-0.08 0.035,-0.156 0.092,-0.213l0 0c0.004,-0.004 0.008,-0.007 0.012,-0.011l-0.134 -0.208 -0.112 0.149c0.014,0.032 0.022,0.067 0.022,0.102 0,0.066 -0.027,0.129 -0.073,0.175l0 0.001c-0.047,0.046 -0.11,0.072 -0.176,0.072l-0.037 0 -0.241 0.32zm0 -0.855l0 0.338 0.278 0c0.014,0 0.027,-0.005 0.036,-0.015l0.001 0c0.009,-0.009 0.014,-0.022 0.014,-0.036 0,-0.013 -0.005,-0.026 -0.014,-0.036l-0.001 0c-0.009,-0.01 -0.022,-0.015 -0.036,-0.015 -0.002,0 -0.005,0 -0.007,0.001 -0.002,0 -0.005,0.001 -0.007,0.001 -0.052,0.015 -0.107,-0.015 -0.122,-0.068 -0.007,-0.023 -0.005,-0.048 0.006,-0.069 0.002,-0.005 0.003,-0.01 0.004,-0.015 0.002,-0.006 0.002,-0.012 0.002,-0.019 0,-0.024 -0.009,-0.047 -0.028,-0.065l-0.001 -0.002c-0.017,-0.016 -0.039,-0.024 -0.062,-0.024 -0.016,0 -0.031,0.004 -0.046,0.012l-0.002 0.001c-0.005,0.003 -0.01,0.007 -0.015,0.011zm0 -0.215c0.021,-0.004 0.042,-0.006 0.063,-0.006 0.074,0 0.145,0.028 0.199,0.079 0.001,0.002 0.003,0.003 0.005,0.005 0.05,0.05 0.08,0.116 0.084,0.187 0.002,0.001 0.005,0.001 0.008,0.002l0.186 -0.248c0.033,-0.043 0.094,-0.052 0.138,-0.019 0.009,0.007 0.017,0.015 0.024,0.025l0.226 0.354c0.01,-0.001 0.019,-0.001 0.028,-0.001 0.078,0 0.153,0.029 0.21,0.081l0.001 0 0.012 0.011c0.033,0.034 0.059,0.075 0.074,0.119 0.022,-0.004 0.045,-0.007 0.067,-0.007 0.078,0 0.153,0.029 0.21,0.081l0.001 0 0.012 0.011c0.059,0.059 0.092,0.139 0.092,0.223 0,0.083 -0.033,0.163 -0.092,0.222 -0.029,0.028 -0.062,0.051 -0.098,0.067l0.123 0.191 0.434 -0.485c0.036,-0.04 0.098,-0.044 0.139,-0.008 0.002,0.002 0.004,0.004 0.006,0.007l0.451 0.485 0 -1.407c0,-0.026 -0.01,-0.051 -0.029,-0.07l0 0c-0.019,-0.019 -0.044,-0.03 -0.071,-0.03l-2.403 0c-0.026,0 -0.051,0.011 -0.07,0.03l0 0c-0.019,0.019 -0.03,0.044 -0.03,0.07l0 0.031zm2.05 0.019c0.088,0 0.171,0.034 0.233,0.096 0.062,0.062 0.097,0.145 0.097,0.233 0,0.088 -0.035,0.171 -0.097,0.233 -0.062,0.062 -0.145,0.096 -0.233,0.096 -0.087,0 -0.171,-0.034 -0.233,-0.096 -0.062,-0.062 -0.096,-0.145 -0.096,-0.233 0,-0.088 0.034,-0.171 0.096,-0.233 0.062,-0.062 0.146,-0.096 0.233,-0.096zm0.094 0.236c-0.025,-0.025 -0.058,-0.039 -0.094,-0.039 -0.035,0 -0.068,0.014 -0.093,0.039 -0.025,0.024 -0.039,0.058 -0.039,0.093 0,0.035 0.014,0.069 0.039,0.093 0.025,0.025 0.058,0.039 0.093,0.039 0.036,0 0.069,-0.014 0.094,-0.039 0.025,-0.024 0.039,-0.058 0.039,-0.093 0,-0.035 -0.014,-0.069 -0.039,-0.093zm1.13 0.69l0.176 0c0.027,0 0.052,-0.011 0.071,-0.029l0 0c0.019,-0.019 0.029,-0.044 0.029,-0.071l0 -1.823c0,-0.026 -0.01,-0.051 -0.029,-0.07l0 0c-0.019,-0.019 -0.044,-0.03 -0.071,-0.03l-2.403 0c-0.026,0 -0.051,0.011 -0.07,0.03l0 0c-0.019,0.019 -0.03,0.044 -0.03,0.07l0 0.177 2.03 0c0.079,0 0.154,0.031 0.209,0.087l0.001 0c0.055,0.056 0.087,0.131 0.087,0.21l0 1.449zm-2.8 -1.273l2.029 0c0.079,0 0.154,0.032 0.21,0.087l0 0.001c0.056,0.055 0.087,0.13 0.087,0.209l0 1.449 0.177 0c0.026,0 0.051,-0.01 0.07,-0.029l0 0c0.019,-0.019 0.029,-0.044 0.029,-0.07l0 -1.823c0,-0.027 -0.01,-0.052 -0.029,-0.071l0 0c-0.019,-0.019 -0.044,-0.029 -0.07,-0.029l-2.403 0c-0.027,0 -0.052,0.01 -0.071,0.029l0 0c-0.019,0.019 -0.029,0.044 -0.029,0.071l0 0.176zm0.188 1.224c-0.011,0.013 -0.017,0.029 -0.017,0.047 0,0.019 0.007,0.037 0.021,0.05 0.013,0.014 0.031,0.021 0.05,0.021l0.609 0c0.031,0 0.061,-0.012 0.083,-0.034 0.022,-0.022 0.035,-0.052 0.035,-0.083 0,-0.031 -0.013,-0.061 -0.035,-0.083 -0.022,-0.022 -0.052,-0.035 -0.083,-0.035 -0.015,0 -0.031,0.003 -0.045,0.009 -0.014,0.006 -0.026,0.014 -0.036,0.024 -0.025,0.027 -0.062,0.039 -0.098,0.03 -0.052,-0.014 -0.085,-0.067 -0.071,-0.12 0.001,-0.004 0.002,-0.007 0.002,-0.011l0.001 -0.003c0,-0.005 0,-0.01 0,-0.015 0,-0.032 -0.012,-0.061 -0.034,-0.083 -0.022,-0.023 -0.052,-0.035 -0.083,-0.035 -0.031,0 -0.061,0.012 -0.083,0.035 -0.022,0.022 -0.034,0.051 -0.034,0.083 0,0.008 0.001,0.016 0.002,0.024 0.002,0.006 0.004,0.013 0.006,0.019 0.011,0.022 0.013,0.047 0.006,0.07 -0.015,0.052 -0.069,0.083 -0.122,0.068 -0.003,-0.001 -0.006,-0.002 -0.01,-0.002 -0.003,-0.001 -0.006,-0.001 -0.01,-0.001 -0.019,0 -0.037,0.008 -0.05,0.021l-0.004 0.004z"/>
  <path class="fil4" d="M6.583 5.231l0.216 0c0.039,0 0.073,-0.015 0.098,-0.04l0.001 -0.001c0.025,-0.025 0.04,-0.06 0.04,-0.098l0 -1.823c0,-0.038 -0.015,-0.073 -0.04,-0.098l-0.001 0c-0.025,-0.025 -0.059,-0.041 -0.098,-0.041l-2.403 0c-0.038,0 -0.073,0.016 -0.098,0.041l0 0c-0.025,0.025 -0.041,0.06 -0.041,0.098l0 0.216 2.069 0c0.071,0 0.135,0.029 0.181,0.076l0.001 0c0.046,0.047 0.075,0.111 0.075,0.182l0 1.488zm-0.731 -1.154l-2.403 0c-0.038,0 -0.073,0.016 -0.098,0.041l0 0c-0.025,0.025 -0.041,0.06 -0.041,0.098l0 0.086c0.031,-0.014 0.066,-0.022 0.102,-0.022 0.067,0 0.127,0.027 0.172,0.07 0.001,0.001 0.003,0.002 0.004,0.003 0.045,0.045 0.073,0.107 0.073,0.176 0,0.005 0,0.009 0,0.014 0.021,0.003 0.041,0.01 0.06,0.019l0.205 -0.272c0.019,-0.026 0.056,-0.031 0.082,-0.012 0.006,0.005 0.011,0.01 0.014,0.016l0 0 0.241 0.375c0.015,-0.003 0.031,-0.005 0.047,-0.005 0.076,0 0.145,0.031 0.194,0.081l0.001 0 0 0c0.037,0.038 0.064,0.086 0.075,0.14 0.03,-0.01 0.061,-0.016 0.094,-0.016 0.076,0 0.145,0.03 0.195,0.08l0 0 0 0c0.05,0.05 0.08,0.119 0.08,0.195 0,0.076 -0.03,0.145 -0.08,0.194 -0.036,0.036 -0.08,0.061 -0.131,0.073l0.178 0.278 0.469 -0.524c0.022,-0.024 0.059,-0.026 0.083,-0.004 0.002,0.001 0.003,0.002 0.004,0.003l0 0 0.519 0.559 0 -1.507c0,-0.038 -0.015,-0.073 -0.04,-0.098l-0.001 0c-0.025,-0.025 -0.059,-0.041 -0.098,-0.041zm-2.542 0.37l0 0.393 0.317 0c0.025,0 0.048,-0.01 0.064,-0.027l0 0c0.017,-0.016 0.027,-0.039 0.027,-0.064 0,-0.025 -0.01,-0.047 -0.027,-0.064l0 0c-0.016,-0.016 -0.039,-0.026 -0.064,-0.026 -0.005,0 -0.009,0 -0.013,0 -0.003,0.001 -0.007,0.002 -0.012,0.003 -0.031,0.009 -0.064,-0.009 -0.073,-0.04 -0.004,-0.015 -0.002,-0.03 0.004,-0.043 0.003,-0.007 0.005,-0.015 0.007,-0.023 0.002,-0.008 0.003,-0.017 0.003,-0.027 0,-0.036 -0.015,-0.069 -0.039,-0.092l-0.002 -0.003c-0.024,-0.022 -0.055,-0.036 -0.09,-0.036 -0.023,0 -0.045,0.006 -0.064,0.017l-0.003 0.001c-0.013,0.008 -0.025,0.019 -0.035,0.031zm0 0.511l0 0.15 0.113 -0.15 -0.113 0zm0 0.346l0 0.735c0,0.038 0.016,0.073 0.041,0.098l0 0.001c0.025,0.025 0.06,0.04 0.098,0.04l1.03 0 0.356 -0.397 -0.232 -0.362 -0.538 0c-0.063,0 -0.12,-0.026 -0.162,-0.067 -0.041,-0.042 -0.067,-0.099 -0.067,-0.162 0,-0.063 0.026,-0.121 0.067,-0.162l0 -0.001c0.035,-0.035 0.081,-0.058 0.133,-0.065 -0.001,-0.007 -0.001,-0.015 -0.001,-0.022 0,-0.076 0.031,-0.145 0.081,-0.195l0 0c0.011,-0.011 0.023,-0.021 0.036,-0.03l-0.183 -0.286 -0.162 0.214c0.019,0.031 0.029,0.068 0.029,0.106 0,0.058 -0.023,0.11 -0.061,0.148l0 0c-0.038,0.038 -0.09,0.061 -0.148,0.061l-0.057 0 -0.26 0.346zm1.328 0.874l1.214 0c0.039,0 0.073,-0.015 0.098,-0.04l0.001 -0.001c0.025,-0.025 0.04,-0.06 0.04,-0.098l0 -0.143 -0.561 -0.604 -0.475 0.531c-0.002,0.002 -0.003,0.004 -0.005,0.006l-0.312 0.349zm-1.189 -2.219l0.216 0 0 -0.216c0,-0.071 0.029,-0.135 0.076,-0.182l0 0c0.047,-0.047 0.111,-0.076 0.182,-0.076l0.216 0 0 -0.216c0,-0.071 0.029,-0.135 0.075,-0.182l0 0c0.047,-0.046 0.111,-0.075 0.182,-0.075l2.403 0c0.071,0 0.135,0.029 0.182,0.075l0 0c0.047,0.047 0.076,0.111 0.076,0.182l0 1.823c0,0.071 -0.029,0.135 -0.076,0.182l0 0c-0.047,0.047 -0.111,0.076 -0.182,0.076l-0.216 0 0 0.216c0,0.07 -0.029,0.135 -0.075,0.181l-0.001 0.001c-0.046,0.046 -0.11,0.075 -0.181,0.075l-0.216 0 0 0.216c0,0.071 -0.029,0.135 -0.076,0.182l0 0c-0.047,0.047 -0.111,0.076 -0.182,0.076l-2.403 0c-0.071,0 -0.135,-0.029 -0.182,-0.076l0 0c-0.046,-0.047 -0.075,-0.111 -0.075,-0.182l0 -1.14 0 -0.683c0,-0.071 0.029,-0.135 0.075,-0.182l0 0c0.047,-0.046 0.111,-0.075 0.182,-0.075zm0.335 0l2.068 0c0.071,0 0.135,0.029 0.182,0.075l0 0c0.047,0.047 0.076,0.111 0.076,0.182l0 1.489 0.216 0c0.038,0 0.073,-0.016 0.098,-0.041l0 0c0.025,-0.025 0.041,-0.06 0.041,-0.098l0 -1.823c0,-0.039 -0.016,-0.073 -0.041,-0.099l0 0c-0.025,-0.025 -0.06,-0.04 -0.098,-0.04l-2.403 0c-0.039,0 -0.073,0.015 -0.099,0.04l0 0c-0.025,0.026 -0.04,0.06 -0.04,0.099l0 0.216zm1.615 0.346c0.08,0 0.153,0.032 0.205,0.085 0.053,0.052 0.085,0.125 0.085,0.205 0,0.08 -0.032,0.153 -0.085,0.205 -0.052,0.052 -0.125,0.085 -0.205,0.085 -0.08,0 -0.152,-0.033 -0.205,-0.085 -0.052,-0.052 -0.085,-0.125 -0.085,-0.205 0,-0.08 0.033,-0.153 0.085,-0.205 0.053,-0.053 0.125,-0.085 0.205,-0.085zm0.122 0.169c-0.031,-0.031 -0.074,-0.051 -0.122,-0.051 -0.047,0 -0.09,0.02 -0.121,0.051 -0.031,0.031 -0.05,0.074 -0.05,0.121 0,0.047 0.019,0.09 0.05,0.121 0.031,0.031 0.074,0.051 0.121,0.051 0.048,0 0.091,-0.02 0.122,-0.051 0.031,-0.031 0.05,-0.074 0.05,-0.121 0,-0.047 -0.019,-0.09 -0.05,-0.121zm-1.44 0.606c-0.005,-0.001 -0.01,-0.001 -0.016,-0.001 -0.03,0 -0.058,0.012 -0.078,0.032l0 0 0 0c-0.02,0.02 -0.033,0.048 -0.033,0.079 0,0.03 0.013,0.058 0.033,0.078 0.02,0.02 0.048,0.033 0.078,0.033l0.609 0c0.043,0 0.083,-0.018 0.111,-0.046 0.028,-0.029 0.046,-0.068 0.046,-0.111 0,-0.043 -0.018,-0.083 -0.046,-0.111l0 0c-0.028,-0.028 -0.067,-0.046 -0.111,-0.046 -0.022,0 -0.042,0.004 -0.061,0.012 -0.018,0.008 -0.035,0.019 -0.049,0.033 -0.014,0.016 -0.037,0.024 -0.059,0.019 -0.032,-0.008 -0.051,-0.041 -0.043,-0.072 0.002,-0.006 0.003,-0.011 0.003,-0.016l0.001 -0.003c0.001,-0.007 0.001,-0.014 0.001,-0.02 0,-0.044 -0.018,-0.083 -0.046,-0.111l0 0c-0.028,-0.029 -0.067,-0.046 -0.111,-0.046 -0.043,0 -0.082,0.017 -0.111,0.046 -0.028,0.028 -0.046,0.067 -0.046,0.111 0,0.011 0.002,0.022 0.004,0.032 0.002,0.009 0.004,0.019 0.008,0.028 0.007,0.012 0.008,0.027 0.004,0.042 -0.009,0.032 -0.041,0.05 -0.073,0.041 -0.005,-0.002 -0.01,-0.003 -0.015,-0.003z"/>
 </g>
</svg>
