<?xml version="1.0" encoding="UTF-8"?>
<!DOCTYPE svg PUBLIC "-//W3C//DTD SVG 1.1//EN" "http://www.w3.org/Graphics/SVG/1.1/DTD/svg11.dtd">
<!-- Creator: CorelDRAW 2018 (64 Bit) -->
<svg xmlns="http://www.w3.org/2000/svg" xml:space="preserve" width="124px" height="118px" version="1.1" style="shape-rendering:geometricPrecision; text-rendering:geometricPrecision; image-rendering:optimizeQuality; fill-rule:evenodd; clip-rule:evenodd"
viewBox="0 0 19.637 18.82"
 xmlns:xlink="http://www.w3.org/1999/xlink">
 <defs>
  <style type="text/css">
   <![CDATA[
    .fil0 {fill:#14315D}
    .fil1 {fill:white}
    .fil2 {fill:#000038;fill-rule:nonzero}
    .fil3 {fill:url(#id0)}
    .fil4 {fill:url(#id1);fill-rule:nonzero}
   ]]>
  </style>
  <linearGradient id="id0" gradientUnits="userSpaceOnUse" x1="6.466" y1="9.237" x2="13.987" y2="9.237">
   <stop offset="0" style="stop-opacity:1; stop-color:#190085"/>
   <stop offset="1" style="stop-opacity:1; stop-color:#0098DA"/>
  </linearGradient>
  <linearGradient id="id1" gradientUnits="userSpaceOnUse" xlink:href="#id0" x1="6.546" y1="9.237" x2="13.908" y2="9.237">
  </linearGradient>
 </defs>
 <g id="Camada_x0020_1">
  <metadata id="CorelCorpID_0Corel-Layer"/>
  <circle class="fil0" cx="10.227" cy="9.41" r="9.41"/>
  <circle class="fil1" cx="10.227" cy="9.41" r="7.874"/>
  <circle class="fil1" cx="3.104" cy="3.53" r="3.104"/>
  <path class="fil2" d="M3.966 2.778c0,0.17 -0.051,0.315 -0.154,0.433 -0.103,0.12 -0.247,0.201 -0.434,0.246l0 0.011c0.22,0.027 0.386,0.094 0.499,0.2 0.113,0.107 0.169,0.25 0.169,0.43 0,0.262 -0.095,0.466 -0.284,0.612 -0.19,0.146 -0.462,0.219 -0.814,0.219 -0.296,0 -0.558,-0.049 -0.786,-0.148l0 -0.49c0.106,0.053 0.221,0.096 0.349,0.13 0.126,0.034 0.251,0.05 0.376,0.05 0.19,0 0.33,-0.032 0.42,-0.096 0.091,-0.065 0.136,-0.169 0.136,-0.311 0,-0.128 -0.052,-0.218 -0.156,-0.271 -0.104,-0.054 -0.271,-0.08 -0.499,-0.08l-0.207 0 0 -0.442 0.21 0c0.212,0 0.366,-0.028 0.463,-0.083 0.098,-0.055 0.147,-0.15 0.147,-0.283 0,-0.206 -0.129,-0.309 -0.388,-0.309 -0.09,0 -0.18,0.014 -0.272,0.044 -0.093,0.03 -0.196,0.082 -0.309,0.155l-0.266 -0.396c0.248,-0.179 0.544,-0.268 0.888,-0.268 0.282,0 0.504,0.057 0.667,0.171 0.164,0.114 0.245,0.273 0.245,0.476z"/>
  <path class="fil3" d="M8.468 6.48l0 -0.665c0,-0.11 0.089,-0.199 0.198,-0.199l3.53 0.001 0.016 0.002 0.019 0.004 0.023 0.007 0.023 0.011 0.003 0.002 0.017 0.011 0.019 0.015 0.005 0.005 1.576 1.577c0.056,0.036 0.09,0.098 0.09,0.167l0 5.241c0,0.109 -0.089,0.198 -0.198,0.198l-5.123 0c-0.109,0 -0.198,-0.089 -0.198,-0.198l0 -0.671 -1.803 0c-0.11,0 -0.199,-0.089 -0.199,-0.199l0 -5.11c0,-0.11 0.089,-0.199 0.199,-0.199l1.803 0zm2.398 4.318l2.053 0c0.109,0 0.198,0.089 0.198,0.199 0,0.109 -0.089,0.198 -0.198,0.198l-2.053 0 0 0.594c0,0.11 -0.089,0.199 -0.198,0.199l-1.803 0 0 0.472 4.725 0 0 -4.845 -1.409 0c-0.11,0 -0.199,-0.089 -0.199,-0.198l0 -1.404 -3.117 0 0 0.467 1.803 0c0.109,0 0.198,0.089 0.198,0.199l0 1.57 2.053 0c0.109,0 0.198,0.089 0.198,0.199 0,0.109 -0.089,0.198 -0.198,0.198l-2.053 0 0 0.453 2.053 0c0.109,0 0.198,0.089 0.198,0.198 0,0.11 -0.089,0.199 -0.198,0.199l-2.053 0 0 0.452 2.053 0c0.109,0 0.198,0.089 0.198,0.199 0,0.109 -0.089,0.198 -0.198,0.198l-2.053 0 0 0.453zm1.513 -4.504l0 0.924 0.924 0 -0.924 -0.924zm-1.91 0.583l-3.606 0 0 4.714 3.606 0 0 -4.714zm-3.28 0.18l2.955 0c0.109,0 0.198,0.089 0.198,0.199l0 3.174c0,0.11 -0.089,0.199 -0.198,0.199l-2.955 0c-0.11,0 -0.199,-0.089 -0.199,-0.199l0 -3.174c0,-0.11 0.089,-0.199 0.199,-0.199zm2.604 3.175l-0.548 -0.653 -0.45 0.352c-0.013,0.012 -0.027,0.021 -0.043,0.029 -0.098,0.047 -0.217,0.006 -0.264,-0.093l-0.485 -1.003 -0.616 0.683 0 0.685 2.406 0zm-2.406 -1.277l0.519 -0.575c0.073,-0.082 0.198,-0.088 0.28,-0.015 0.021,0.019 0.038,0.042 0.048,0.067l0.504 1.041 0.414 -0.324c0.084,-0.066 0.205,-0.053 0.274,0.028l0.519 0.619 0 -2.342 -2.558 0 0 1.501zm2.135 -0.353c-0.105,0.101 -0.245,0.157 -0.391,0.157 -0.151,0 -0.294,-0.06 -0.401,-0.167 -0.107,-0.106 -0.167,-0.25 -0.167,-0.401 0,-0.14 0.052,-0.273 0.144,-0.377l0 -0.001 0.023 -0.024c0.107,-0.107 0.25,-0.166 0.401,-0.166 0.151,0 0.295,0.06 0.401,0.166l0.001 0.001c0.106,0.106 0.166,0.25 0.166,0.401 0,0.151 -0.059,0.295 -0.166,0.401 -0.004,0.004 -0.007,0.007 -0.011,0.01zm-0.275 -0.285l0.005 -0.006c0.032,-0.032 0.05,-0.075 0.05,-0.12 0,-0.046 -0.017,-0.089 -0.049,-0.121l-0.001 -0.001c-0.032,-0.032 -0.075,-0.049 -0.121,-0.049 -0.045,0 -0.088,0.018 -0.121,0.05 -0.032,0.032 -0.049,0.075 -0.049,0.121 0,0.045 0.017,0.088 0.05,0.12 0.032,0.033 0.075,0.051 0.12,0.051 0.043,0 0.085,-0.016 0.116,-0.045z"/>
  <path class="fil4" d="M6.665 6.559l1.882 0 0 -0.744c0,-0.066 0.053,-0.119 0.119,-0.119l3.515 0 0.003 0 0.003 0 0.001 0 0.002 0 0 0 0.001 0 0.002 0 0.003 0.001 0.003 0 0.003 0.001 0.003 0 0.003 0.001 0.002 0 0.003 0.001 0.002 0.001 0.001 0 0 0 0.001 0.001 0.002 0 0 0 0.001 0 0.002 0.001 0 0 0.001 0 0.001 0.001 0 0 0.002 0.001 0.001 0 0.003 0.001 0.002 0.001 0.002 0.001 0.001 0.001 0 0 0.001 0 0.001 0.001 0.002 0.001 0.001 0 0 0.001 0.001 0 0.001 0.001 0.003 0.002 0.002 0.001 0.003 0.002 0.002 0.001 0.001 0.001 0.001 0.001 0 0 0.001 0.001 0.001 0.001 0.002 0.001 0.001 0.001 0 0 0.001 0.001 0.001 0.001 0 0 0.001 0.001 0.001 0.001 0 0 0.001 0.001 0.001 0.001 1.583 1.582c0.036,0.021 0.06,0.06 0.06,0.104l0 0.003 0 0 0 0.003 0 5.236c0,0.065 -0.054,0.119 -0.119,0.119l-5.123 0c-0.066,0 -0.119,-0.054 -0.119,-0.119l0 -0.751 -1.882 0c-0.066,0 -0.119,-0.053 -0.119,-0.119l0 -5.11c0,-0.066 0.053,-0.12 0.119,-0.12zm2.466 1.143c0.135,0 0.257,0.055 0.345,0.143l0.001 0.001c0.088,0.088 0.143,0.21 0.143,0.345 0,0.135 -0.055,0.257 -0.143,0.345 -0.003,0.003 -0.005,0.005 -0.008,0.007 -0.088,0.084 -0.207,0.136 -0.338,0.136 -0.135,0 -0.257,-0.055 -0.345,-0.143 -0.088,-0.088 -0.143,-0.21 -0.143,-0.345 0,-0.135 0.055,-0.257 0.143,-0.345l0 0 0 -0.001c0.088,-0.088 0.21,-0.143 0.345,-0.143zm0.178 0.312l-0.001 -0.001c-0.045,-0.045 -0.108,-0.072 -0.177,-0.072 -0.069,0 -0.131,0.028 -0.177,0.073l0 0c-0.045,0.045 -0.073,0.107 -0.073,0.177 0,0.069 0.028,0.131 0.073,0.177 0.046,0.045 0.108,0.073 0.177,0.073 0.067,0 0.127,-0.026 0.172,-0.068l0.005 -0.005c0.045,-0.046 0.073,-0.108 0.073,-0.177 0,-0.069 -0.027,-0.132 -0.072,-0.177zm-2.001 1.147l0.657 -0.728c0.044,-0.049 0.119,-0.053 0.168,-0.009 0.013,0.012 0.023,0.026 0.03,0.042l0.546 1.131 0.492 -0.386c0.051,-0.04 0.123,-0.032 0.164,0.017l0 0 0.66 0.786 0 -2.639 -2.717 0 0 1.786zm2.655 1.15l-0.706 -0.842 -0.513 0.402c-0.008,0.007 -0.016,0.012 -0.026,0.017 -0.059,0.029 -0.13,0.004 -0.159,-0.055l-0.536 -1.11 -0.715 0.794 0 0.794 2.655 0zm-2.774 -3.174l2.955 0c0.066,0 0.119,0.053 0.119,0.119l0 3.174c0,0.066 -0.053,0.119 -0.119,0.119l-2.955 0c-0.066,0 -0.119,-0.053 -0.119,-0.119l0 -3.174c0,-0.066 0.053,-0.119 0.119,-0.119zm3.598 3.74l2.132 0c0.065,0 0.119,0.054 0.119,0.12 0,0.065 -0.054,0.119 -0.119,0.119l-2.132 0 0 0.673c0,0.066 -0.054,0.119 -0.119,0.119l-1.883 0 0 0.632 4.885 0 0 -5.004 -1.489 0c-0.066,0 -0.119,-0.053 -0.119,-0.119l0 -1.483 -3.277 0 0 0.625 1.883 0c0.065,0 0.119,0.054 0.119,0.12l0 1.649 2.132 0c0.065,0 0.119,0.054 0.119,0.12 0,0.065 -0.054,0.119 -0.119,0.119l-2.132 0 0 0.611 2.132 0c0.065,0 0.119,0.053 0.119,0.119 0,0.066 -0.054,0.119 -0.119,0.119l-2.132 0 0 0.612 2.132 0c0.065,0 0.119,0.053 0.119,0.119 0,0.066 -0.054,0.119 -0.119,0.119l-2.132 0 0 0.611zm1.513 -4.775l0 1.196 1.195 0 -1.195 -1.196zm-1.752 0.696l-3.764 0 0 4.872 3.764 0 0 -0.673 0 -0.85 0 -0.85 0 -0.849 0 -1.65z"/>
 </g>
</svg>
