<?xml version="1.0" encoding="UTF-8"?>
<!DOCTYPE svg PUBLIC "-//W3C//DTD SVG 1.1//EN" "http://www.w3.org/Graphics/SVG/1.1/DTD/svg11.dtd">
<!-- Creator: CorelDRAW 2018 (64 Bit) -->
<svg xmlns="http://www.w3.org/2000/svg" xml:space="preserve" width="124px" height="118px" version="1.1" style="shape-rendering:geometricPrecision; text-rendering:geometricPrecision; image-rendering:optimizeQuality; fill-rule:evenodd; clip-rule:evenodd"
viewBox="0 0 41.978 40.231"
 xmlns:xlink="http://www.w3.org/1999/xlink">
 <defs>
  <style type="text/css">
   <![CDATA[
    .fil0 {fill:#14315D}
    .fil1 {fill:white}
    .fil2 {fill:#000038;fill-rule:nonzero}
    .fil3 {fill:url(#id0)}
    .fil4 {fill:url(#id1);fill-rule:nonzero}
   ]]>
  </style>
  <linearGradient id="id0" gradientUnits="userSpaceOnUse" x1="12.499" y1="18.627" x2="32.628" y2="18.627">
   <stop offset="0" style="stop-opacity:1; stop-color:#4603BE"/>
   <stop offset="1" style="stop-opacity:1; stop-color:#0098DA"/>
  </linearGradient>
  <linearGradient id="id1" gradientUnits="userSpaceOnUse" xlink:href="#id0" x1="12.669" y1="18.653" x2="32.455" y2="18.653">
  </linearGradient>
 </defs>
 <g id="Camada_x0020_1">
  <metadata id="CorelCorpID_0Corel-Layer"/>
  <circle class="fil0" cx="21.862" cy="20.116" r="20.116"/>
  <circle class="fil1" cx="21.862" cy="20.116" r="16.833"/>
  <circle class="fil1" cx="6.636" cy="7.546" r="6.636"/>
  <path class="fil2" d="M8.677 10.495l-4.067 0 0 -0.855 1.461 -1.476c0.433,-0.443 0.716,-0.75 0.848,-0.921 0.133,-0.171 0.228,-0.329 0.286,-0.476 0.059,-0.145 0.088,-0.296 0.088,-0.452 0,-0.234 -0.065,-0.407 -0.192,-0.521 -0.129,-0.115 -0.302,-0.172 -0.517,-0.172 -0.225,0 -0.444,0.052 -0.656,0.155 -0.213,0.104 -0.434,0.252 -0.665,0.442l-0.668 -0.792c0.286,-0.243 0.523,-0.416 0.712,-0.518 0.188,-0.1 0.393,-0.177 0.616,-0.232 0.224,-0.054 0.473,-0.081 0.748,-0.081 0.364,0 0.685,0.066 0.965,0.198 0.278,0.133 0.494,0.319 0.648,0.558 0.154,0.238 0.23,0.512 0.23,0.819 0,0.268 -0.046,0.519 -0.141,0.754 -0.094,0.235 -0.24,0.475 -0.437,0.722 -0.198,0.246 -0.546,0.598 -1.046,1.054l-0.748 0.704 0 0.056 2.535 0 0 1.034z"/>
  <path class="fil3" d="M25.82 13.475l-0.02 -0.029 0.134 -0.091c0.002,-0.002 0.004,-0.003 0.006,-0.005l0.004 -0.002c0.861,-0.589 2.232,-0.836 3.246,-0.836 0.521,0 1.173,0.07 1.794,0.225 -0.053,-0.03 -0.1,-0.072 -0.137,-0.124 -0.077,-0.108 -0.099,-0.247 -0.059,-0.373l0.034 -0.108 -0.09 -0.066c-0.188,-0.139 -0.229,-0.404 -0.091,-0.592 0.084,-0.114 0.218,-0.179 0.355,-0.173l0.097 -0.001 0.035 -0.106c0.074,-0.221 0.313,-0.342 0.535,-0.269 0.127,0.043 0.226,0.143 0.269,0.27l0.035 0.105 0.112 0.001c0.233,0.002 0.422,0.191 0.421,0.425 -0.001,0.134 -0.065,0.26 -0.173,0.339l-0.089 0.067 0.034 0.107c0.071,0.224 -0.053,0.462 -0.277,0.533 -0.135,0.042 -0.281,0.015 -0.391,-0.073l-0.074 -0.053 -0.092 0.066c-0.076,0.054 -0.163,0.08 -0.249,0.079 0.474,0.135 0.919,0.321 1.26,0.565 0.113,0.082 0.179,0.215 0.176,0.354l-0.102 3.868c-0.002,0.092 -0.034,0.181 -0.092,0.253 -0.457,0.573 -0.942,1.125 -1.455,1.648 -0.434,0.442 -0.887,0.864 -1.362,1.262l0 5.674c0,0.234 -0.19,0.424 -0.424,0.424l-16.266 0c-0.234,0 -0.425,-0.19 -0.425,-0.424l0 -11.746c0,-0.235 0.191,-0.425 0.425,-0.425l12.845 0 -0.014 -0.534c-0.002,-0.084 0.021,-0.165 0.065,-0.235zm3.807 -2.612l0.112 0.001c0.234,0.002 0.422,0.191 0.421,0.425 0,0.134 -0.064,0.26 -0.172,0.339l-0.09 0.067 0.035 0.107c0.07,0.224 -0.054,0.462 -0.277,0.533 -0.135,0.042 -0.281,0.015 -0.392,-0.073l-0.074 -0.053 -0.092 0.066c-0.19,0.136 -0.456,0.092 -0.591,-0.099 -0.077,-0.108 -0.099,-0.247 -0.059,-0.373l0.034 -0.108 -0.09 -0.066c-0.188,-0.139 -0.229,-0.404 -0.091,-0.592 0.084,-0.114 0.219,-0.18 0.355,-0.173l0.097 -0.001 0.035 -0.106c0.074,-0.221 0.313,-0.342 0.535,-0.269 0.128,0.043 0.227,0.143 0.269,0.27l0.035 0.105zm-2.419 0.437l0.111 0.001c0.234,0.002 0.422,0.191 0.422,0.425 -0.001,0.134 -0.065,0.26 -0.173,0.339l-0.089 0.067 0.034 0.107c0.071,0.224 -0.054,0.462 -0.277,0.533 -0.135,0.042 -0.281,0.015 -0.391,-0.073l-0.075 -0.053 -0.091 0.066c-0.191,0.136 -0.456,0.092 -0.592,-0.099 -0.077,-0.108 -0.098,-0.247 -0.059,-0.373l0.034 -0.108 -0.089 -0.066c-0.188,-0.139 -0.229,-0.404 -0.091,-0.592 0.084,-0.114 0.218,-0.179 0.355,-0.173l0.096 -0.001 0.036 -0.106c0.073,-0.221 0.313,-0.342 0.534,-0.269 0.128,0.043 0.227,0.143 0.269,0.27l0.036 0.105zm-13.86 14.69l15.418 0 0 -5.249c-0.475,-0.398 -0.928,-0.82 -1.362,-1.262 -0.513,-0.523 -0.998,-1.074 -1.455,-1.647 -0.062,-0.078 -0.095,-0.174 -0.092,-0.269l-0.065 -2.47 -12.444 0 0 1.856 8.457 0c0.235,0 0.425,0.19 0.425,0.425 0,0.234 -0.19,0.424 -0.425,0.424l-8.457 0 0 8.192zm0.961 -1.237c-0.235,0 -0.425,-0.19 -0.425,-0.424 0,-0.234 0.19,-0.424 0.425,-0.424l4.478 0c0.234,0 0.424,0.19 0.424,0.424 0,0.234 -0.19,0.424 -0.424,0.424l-4.478 0zm5.796 0c-0.234,0 -0.424,-0.19 -0.424,-0.424 0,-0.234 0.19,-0.424 0.424,-0.424l1.422 0c0.235,0 0.425,0.19 0.425,0.424 0,0.234 -0.19,0.424 -0.425,0.424l-1.422 0zm-5.796 -1.293c-0.235,0 -0.425,-0.19 -0.425,-0.424 0,-0.235 0.19,-0.425 0.425,-0.425l0.766 0c0.235,0 0.425,0.19 0.425,0.425 0,0.234 -0.19,0.424 -0.425,0.424l-0.766 0zm2.034 0c-0.234,0 -0.424,-0.19 -0.424,-0.424 0,-0.235 0.19,-0.425 0.424,-0.425l5.184 0c0.235,0 0.425,0.19 0.425,0.425 0,0.234 -0.19,0.424 -0.425,0.424l-5.184 0zm-2.034 -1.094c-0.235,0 -0.425,-0.19 -0.425,-0.424 0,-0.235 0.19,-0.425 0.425,-0.425l7.218 0c0.235,0 0.425,0.19 0.425,0.425 0,0.234 -0.19,0.424 -0.425,0.424l-7.218 0zm-0.478 -5.905c-0.234,0 -0.424,-0.19 -0.424,-0.424 0,-0.234 0.19,-0.425 0.424,-0.425l2.407 0c0.234,0 0.424,0.191 0.424,0.425 0,0.234 -0.19,0.424 -0.424,0.424l-2.407 0zm13.769 8.296l-4.059 0c-0.234,0 -0.424,-0.19 -0.424,-0.424l0 -3.048c0,-0.235 0.19,-0.425 0.424,-0.425l4.059 0c0.234,0 0.424,0.19 0.424,0.425l0 3.048c0,0.234 -0.19,0.424 -0.424,0.424zm-3.635 -0.849l3.21 0 0 -2.199 -3.21 0 0 2.199zm5.225 -3.92c0.41,-0.349 0.804,-0.718 1.182,-1.103 0.46,-0.469 0.895,-0.961 1.308,-1.472l0.092 -3.479c-0.751,-0.412 -1.748,-0.574 -2.582,-0.574 -0.834,0 -1.831,0.162 -2.582,0.574l0.092 3.479c0.413,0.511 0.849,1.003 1.308,1.472 0.378,0.385 0.772,0.754 1.182,1.103zm-1.059 -4.564c0.023,-0.164 0.064,-0.327 0.137,-0.474 0.185,-0.374 0.504,-0.553 0.922,-0.553 0.418,0 0.737,0.179 0.922,0.553 0.073,0.147 0.114,0.31 0.137,0.474l0.075 0c0.234,0 0.424,0.19 0.424,0.424l0 1.735c0,0.234 -0.19,0.424 -0.424,0.424l-2.268 0c-0.234,0 -0.424,-0.19 -0.424,-0.424l0 -1.735c0,-0.234 0.19,-0.424 0.424,-0.424l0.075 0zm1.257 0c-0.01,-0.035 -0.021,-0.069 -0.036,-0.099 -0.033,-0.067 -0.09,-0.08 -0.162,-0.08 -0.071,0 -0.129,0.013 -0.162,0.08 -0.015,0.03 -0.026,0.064 -0.035,0.099l0.395 0zm-0.649 1.735c-0.05,-0.063 -0.079,-0.143 -0.079,-0.229 0,-0.046 0.008,-0.09 0.024,-0.132 -0.019,-0.058 -0.028,-0.118 -0.028,-0.18 0,-0.13 0.043,-0.249 0.128,-0.346l-0.304 0 0 0.887 0.259 0zm0.901 0l0.26 0 0 -0.887 -0.304 0c0.085,0.097 0.128,0.216 0.128,0.346 0,0.062 -0.009,0.123 -0.028,0.181 0.047,0.123 0.024,0.26 -0.056,0.36z"/>
  <path class="fil4" d="M13.178 26.16l15.757 0 0 -5.499c-0.476,-0.396 -0.946,-0.828 -1.41,-1.301 -0.492,-0.502 -0.974,-1.046 -1.444,-1.634 -0.038,-0.049 -0.056,-0.107 -0.055,-0.165l-0.069 -2.638 -12.779 0 0 2.196 8.627 0c0.141,0 0.255,0.114 0.255,0.255 0,0.14 -0.114,0.254 -0.255,0.254l-8.627 0 0 8.532zm18.593 -14.912l0.073 0.221 0.234 0.002c0.14,0 0.253,0.114 0.252,0.254 0,0.084 -0.041,0.158 -0.103,0.204l0 0 -0.187 0.138 0.07 0.224c0.043,0.134 -0.032,0.277 -0.166,0.319 -0.085,0.027 -0.173,0.007 -0.238,-0.046l-0.176 -0.126 -0.191 0.136c-0.114,0.081 -0.273,0.055 -0.354,-0.059 -0.048,-0.068 -0.058,-0.151 -0.035,-0.224l-0.001 0 0.071 -0.224 -0.187 -0.138c-0.114,-0.083 -0.138,-0.242 -0.055,-0.355 0.052,-0.071 0.135,-0.107 0.217,-0.103l0.22 -0.002 0.074 -0.221c0.044,-0.133 0.187,-0.205 0.32,-0.161 0.08,0.026 0.137,0.088 0.162,0.161zm-2.34 -0.437l0.074 0.221 0.233 0.002c0.14,0 0.253,0.114 0.253,0.254 -0.001,0.084 -0.041,0.158 -0.104,0.204l0 0 -0.187 0.138 0.071 0.224c0.042,0.134 -0.032,0.277 -0.166,0.319 -0.085,0.027 -0.174,0.007 -0.238,-0.046l-0.177 -0.126 -0.191 0.136c-0.114,0.081 -0.273,0.055 -0.354,-0.059 -0.048,-0.068 -0.058,-0.151 -0.035,-0.224l-0.001 0 0.071 -0.224 -0.187 -0.138c-0.113,-0.083 -0.138,-0.242 -0.055,-0.355 0.053,-0.071 0.135,-0.107 0.217,-0.103l0.221 -0.002 0.073 -0.221c0.044,-0.133 0.188,-0.205 0.321,-0.162 0.079,0.027 0.137,0.089 0.161,0.162zm-2.42 0.437l0.074 0.221 0.233 0.002c0.14,0 0.254,0.114 0.253,0.254 0,0.084 -0.041,0.158 -0.104,0.204l0.001 0 -0.188 0.138 0.071 0.224c0.042,0.134 -0.032,0.277 -0.166,0.319 -0.085,0.027 -0.174,0.007 -0.238,-0.046l-0.177 -0.126 -0.19 0.136c-0.114,0.081 -0.273,0.055 -0.354,-0.059 -0.048,-0.068 -0.059,-0.151 -0.036,-0.224l0 0 0.071 -0.224 -0.188 -0.138c-0.113,-0.083 -0.137,-0.242 -0.054,-0.355 0.052,-0.071 0.135,-0.107 0.217,-0.103l0.22 -0.002 0.074 -0.221c0.044,-0.133 0.187,-0.205 0.32,-0.161 0.079,0.026 0.137,0.088 0.161,0.161zm2.179 5.88l-0.162 0c-0.11,0 -0.199,-0.089 -0.199,-0.198 0,-0.038 0.011,-0.074 0.03,-0.105l0.012 -0.022c-0.027,-0.048 -0.046,-0.108 -0.046,-0.185 0,-0.11 0.044,-0.193 0.104,-0.253 0.08,-0.079 0.193,-0.11 0.261,-0.11 0.068,0 0.181,0.031 0.261,0.11 0.06,0.06 0.104,0.143 0.104,0.253 0,0.077 -0.019,0.137 -0.046,0.185l0.018 0.033c0.052,0.096 0.016,0.217 -0.081,0.268 -0.03,0.016 -0.062,0.024 -0.094,0.024l0 0 -0.162 0zm-0.906 -1.535c0.015,-0.205 0.054,-0.401 0.136,-0.568 0.137,-0.277 0.372,-0.459 0.77,-0.459 0.398,0 0.633,0.182 0.77,0.459 0.082,0.167 0.121,0.363 0.136,0.568l0.228 0c0.141,0 0.255,0.114 0.255,0.255l0 1.735c0,0.141 -0.114,0.255 -0.255,0.255l-2.268 0c-0.141,0 -0.255,-0.114 -0.255,-0.255l0 -1.735c0,-0.141 0.114,-0.255 0.255,-0.255l0.228 0zm1.302 0c-0.012,-0.132 -0.036,-0.252 -0.082,-0.343 -0.052,-0.105 -0.147,-0.174 -0.314,-0.174 -0.167,0 -0.262,0.069 -0.314,0.174 -0.046,0.091 -0.07,0.211 -0.082,0.343l0.792 0zm-0.141 5.068l0 5.754c0,0.14 -0.114,0.254 -0.255,0.254l-16.266 0c-0.141,0 -0.255,-0.114 -0.255,-0.254l0 -9.041 0 -2.705c0,-0.141 0.114,-0.255 0.255,-0.255l13.019 0 -0.018 -0.708c-0.002,-0.089 0.042,-0.169 0.111,-0.216 0.085,-0.059 1.201,-0.809 3.154,-0.809 2.03,0 3.156,0.811 3.16,0.813 0.07,0.051 0.107,0.131 0.105,0.212l0 0 -0.102 3.868c-0.001,0.057 -0.021,0.11 -0.055,0.152l0.001 0c-0.47,0.588 -0.952,1.132 -1.444,1.634 -0.464,0.473 -0.934,0.906 -1.41,1.301zm-1.558 -1.657c0.425,0.433 0.86,0.835 1.303,1.207 0.443,-0.372 0.878,-0.774 1.303,-1.207 0.46,-0.469 0.912,-0.978 1.355,-1.529l0.096 -3.638c-0.305,-0.18 -1.242,-0.646 -2.754,-0.646 -1.512,0 -2.449,0.466 -2.754,0.646l0.096 3.638c0.443,0.551 0.895,1.06 1.355,1.529zm-1.851 -5.514c0.039,-0.026 0.086,-0.043 0.137,-0.044m-11.864 11.138c-0.141,0 -0.255,-0.114 -0.255,-0.255 0,-0.14 0.114,-0.255 0.255,-0.255l4.478 0c0.14,0 0.254,0.115 0.254,0.255 0,0.141 -0.114,0.255 -0.254,0.255l-4.478 0zm5.796 0c-0.14,0 -0.254,-0.114 -0.254,-0.255 0,-0.14 0.114,-0.255 0.254,-0.255l1.422 0c0.141,0 0.255,0.115 0.255,0.255 0,0.141 -0.114,0.255 -0.255,0.255l-1.422 0zm-5.796 -1.294c-0.141,0 -0.255,-0.114 -0.255,-0.254 0,-0.141 0.114,-0.255 0.255,-0.255l0.766 0c0.141,0 0.255,0.114 0.255,0.255 0,0.14 -0.114,0.254 -0.255,0.254l-0.766 0zm2.034 0c-0.14,0 -0.254,-0.114 -0.254,-0.254 0,-0.141 0.114,-0.255 0.254,-0.255l5.184 0c0.141,0 0.255,0.114 0.255,0.255 0,0.14 -0.114,0.254 -0.255,0.254l-5.184 0zm-2.034 -1.094c-0.141,0 -0.255,-0.114 -0.255,-0.254 0,-0.141 0.114,-0.255 0.255,-0.255l7.218 0c0.141,0 0.255,0.114 0.255,0.255 0,0.14 -0.114,0.254 -0.255,0.254l-7.218 0zm-0.478 -5.904c-0.14,0 -0.254,-0.115 -0.254,-0.255 0,-0.141 0.114,-0.255 0.254,-0.255l2.407 0c0.14,0 0.254,0.114 0.254,0.255 0,0.14 -0.114,0.255 -0.254,0.255l-2.407 0zm14.48 1.036l1.758 0 0 -1.225 -0.218 0 -1.322 0 -0.218 0 0 1.225zm-4.515 6.75l3.549 0 0 -2.539 -3.549 0 0 2.539zm3.804 0.509l-4.059 0c-0.141,0 -0.255,-0.114 -0.255,-0.254l0 -3.048c0,-0.141 0.114,-0.255 0.255,-0.255l4.059 0c0.14,0 0.254,0.114 0.254,0.255l0 3.048c0,0.14 -0.114,0.254 -0.254,0.254z"/>
 </g>
</svg>
