<?xml version="1.0" encoding="UTF-8"?>
<!DOCTYPE svg PUBLIC "-//W3C//DTD SVG 1.1//EN" "http://www.w3.org/Graphics/SVG/1.1/DTD/svg11.dtd">
<!-- Creator: CorelDRAW 2018 (64 Bit) -->
<svg xmlns="http://www.w3.org/2000/svg" xml:space="preserve" width="124px" height="118px" version="1.1" style="shape-rendering:geometricPrecision; text-rendering:geometricPrecision; image-rendering:optimizeQuality; fill-rule:evenodd; clip-rule:evenodd"
viewBox="0 0 12.816 12.283"
 xmlns:xlink="http://www.w3.org/1999/xlink">
 <defs>
  <style type="text/css">
   <![CDATA[
    .fil0 {fill:#14315D}
    .fil1 {fill:white}
    .fil2 {fill:#000038;fill-rule:nonzero}
    .fil3 {fill:url(#id0)}
    .fil4 {fill:url(#id1);fill-rule:nonzero}
   ]]>
  </style>
  <linearGradient id="id0" gradientUnits="userSpaceOnUse" x1="3.606" y1="6.141" x2="9.041" y2="6.141">
   <stop offset="0" style="stop-opacity:1; stop-color:#9673DE"/>
   <stop offset="1" style="stop-opacity:1; stop-color:#FF35E0"/>
  </linearGradient>
  <linearGradient id="id1" gradientUnits="userSpaceOnUse" xlink:href="#id0" x1="3.637" y1="6.141" x2="9.01" y2="6.141">
  </linearGradient>
 </defs>
 <g id="Camada_x0020_1">
  <metadata id="CorelCorpID_0Corel-Layer"/>
  <circle class="fil0" cx="6.675" cy="6.141" r="6.141"/>
  <circle class="fil1" cx="6.675" cy="6.141" r="5.139"/>
  <circle class="fil1" cx="2.026" cy="2.304" r="2.026"/>
  <path class="fil2" d="M2.695 2.824l-0.213 0 0 0.368 -0.367 0 0 -0.368 -0.758 0 0 -0.261 0.778 -1.147 0.347 0 0 1.117 0.213 0 0 0.291zm-0.58 -0.291l0 -0.302c0,-0.05 0.002,-0.123 0.006,-0.219 0.004,-0.096 0.007,-0.151 0.009,-0.166l-0.009 0c-0.03,0.066 -0.066,0.131 -0.108,0.194l-0.326 0.493 0.428 0z"/>
  <path class="fil3" d="M4.01 4.78c0.223,0 0.404,0.181 0.404,0.404 0,0.223 -0.181,0.405 -0.404,0.405 -0.223,0 -0.404,-0.182 -0.404,-0.405 0,-0.223 0.181,-0.404 0.404,-0.404zm4.759 2.953l0.074 0.128c0.029,0.048 0.054,0.124 0.006,0.191 -0.01,0.013 -0.02,0.026 -0.031,0.039l0 0.001c-0.257,0.304 -0.758,0.375 -1.131,0.375 -0.316,0 -0.683,-0.048 -0.955,-0.223 -0.068,-0.044 -0.153,-0.118 -0.206,-0.192 -0.048,-0.067 -0.023,-0.143 0.005,-0.191l0.585 -1.01 0 -0.627c-0.099,-0.047 -0.202,-0.128 -0.202,-0.247 0,-0.144 0.148,-0.23 0.266,-0.274 0.285,-0.103 0.729,-0.103 1.014,0 0.119,0.044 0.267,0.13 0.267,0.274 0,0.119 -0.103,0.2 -0.203,0.247l0 0.627 0.364 0.629 0.147 0.253zm-3.021 -2.183l0 0.481c0.416,0.177 0.688,0.586 0.688,1.041 0,0.624 -0.507,1.131 -1.132,1.131 -0.624,0 -1.131,-0.507 -1.131,-1.131 0,-0.493 0.319,-0.929 0.787,-1.078l0 -0.444c-0.11,-0.054 -0.211,-0.148 -0.211,-0.279 0,-0.128 0.098,-0.221 0.205,-0.275 0.225,-0.115 0.575,-0.115 0.799,0 0.108,0.054 0.205,0.147 0.205,0.275 0,0.131 -0.101,0.225 -0.21,0.279zm1.967 -0.406c0.083,0 0.151,0.067 0.151,0.151 0,0.083 -0.068,0.15 -0.151,0.15 -0.083,0 -0.151,-0.067 -0.151,-0.15 0,-0.084 0.068,-0.151 0.151,-0.151zm-0.191 -0.564c0.084,0 0.151,0.068 0.151,0.151 0,0.083 -0.067,0.15 -0.151,0.15 -0.083,0 -0.15,-0.067 -0.15,-0.15 0,-0.083 0.067,-0.151 0.15,-0.151zm-0.404 -0.4c0.083,0 0.151,0.067 0.151,0.15 0,0.084 -0.068,0.151 -0.151,0.151 -0.083,0 -0.15,-0.067 -0.15,-0.151 0,-0.083 0.067,-0.15 0.15,-0.15zm-0.552 -0.163c0.083,0 0.151,0.067 0.151,0.15 0,0.083 -0.068,0.151 -0.151,0.151 -0.083,0 -0.15,-0.068 -0.15,-0.151 0,-0.083 0.067,-0.15 0.15,-0.15zm-0.523 0.093c0.084,0 0.151,0.067 0.151,0.151 0,0.083 -0.067,0.15 -0.151,0.15 -0.083,0 -0.15,-0.067 -0.15,-0.15 0,-0.084 0.067,-0.151 0.15,-0.151zm-0.461 0.356c0.083,0 0.151,0.067 0.151,0.15 0,0.083 -0.068,0.151 -0.151,0.151 -0.083,0 -0.151,-0.068 -0.151,-0.151 0,-0.083 0.068,-0.15 0.151,-0.15zm3.045 -0.128c0.227,0 0.412,0.185 0.412,0.412 0,0.227 -0.185,0.412 -0.412,0.412 -0.227,0 -0.412,-0.185 -0.412,-0.412 0,-0.227 0.185,-0.412 0.412,-0.412zm-3.9 -0.522c0.223,0 0.404,0.181 0.404,0.404 0,0.223 -0.181,0.404 -0.404,0.404 -0.223,0 -0.404,-0.181 -0.404,-0.404 0,-0.223 0.181,-0.404 0.404,-0.404zm-0.587 1.236c-0.118,-0.118 -0.319,-0.031 -0.319,0.132 0,0.164 0.201,0.25 0.319,0.132 0.073,-0.072 0.072,-0.192 0,-0.264zm1.388 0.566c-0.115,0.02 -0.238,0.02 -0.353,0l0 0.329c0.118,-0.013 0.237,-0.007 0.353,0.016l0 -0.345zm0.125 -0.428c-0.163,-0.083 -0.44,-0.083 -0.603,0 -0.024,0.012 -0.085,0.048 -0.085,0.081 0,0.034 0.061,0.07 0.085,0.082 0.163,0.083 0.44,0.083 0.603,0 0.024,-0.012 0.085,-0.048 0.085,-0.082 0,-0.033 -0.061,-0.069 -0.085,-0.081zm0.489 1.52c-0.145,-0.334 -0.474,-0.552 -0.84,-0.552 -0.365,0 -0.694,0.218 -0.839,0.552 0.246,-0.123 0.568,-0.164 0.839,-0.164 0.272,0 0.594,0.041 0.84,0.164zm0 0.723c-0.246,0.123 -0.568,0.164 -0.84,0.164 -0.271,0 -0.593,-0.041 -0.839,-0.164 0.145,0.334 0.474,0.552 0.839,0.552 0.366,0 0.695,-0.218 0.84,-0.552zm-0.158 -0.556c-0.206,-0.084 -0.46,-0.114 -0.682,-0.114 -0.221,0 -0.475,0.03 -0.682,0.114 -0.067,0.028 -0.231,0.105 -0.231,0.195 0,0.089 0.164,0.166 0.231,0.194 0.207,0.084 0.461,0.114 0.682,0.114 0.222,0 0.476,-0.03 0.682,-0.114 0.068,-0.028 0.232,-0.105 0.232,-0.194 0,-0.09 -0.164,-0.167 -0.232,-0.195zm1.258 0.187l-0.518 0.894c0.194,0.244 0.686,0.291 0.961,0.291 0.275,0 0.768,-0.047 0.961,-0.291l-0.026 -0.045 -0.491 -0.849c-0.214,0.124 -0.673,0.124 -0.887,0zm0.796 -0.409l0 -0.362c-0.221,0.047 -0.485,0.047 -0.706,0l0 0.362c0.202,-0.07 0.504,-0.07 0.706,0zm0.066 -0.604c0.034,-0.015 0.13,-0.047 0.137,-0.073 -0.006,-0.024 -0.102,-0.063 -0.123,-0.07 -0.236,-0.086 -0.63,-0.086 -0.866,0 -0.02,0.007 -0.117,0.046 -0.123,0.068 0.006,0.024 0.103,0.062 0.123,0.07 0.233,0.085 0.618,0.086 0.852,0.005zm-0.751 0.829c0.179,0.08 0.485,0.08 0.664,0 -0.179,-0.08 -0.485,-0.08 -0.664,0zm1.412 -2.268c-0.123,-0.123 -0.332,-0.033 -0.332,0.138 0,0.171 0.209,0.261 0.332,0.137 0.075,-0.075 0.075,-0.199 0,-0.275zm-3.906 -0.524c-0.118,-0.118 -0.318,-0.031 -0.318,0.132 0,0.164 0.2,0.25 0.318,0.132 0.073,-0.072 0.072,-0.192 0,-0.264z"/>
  <path class="fil4" d="M4.01 4.811c0.103,0 0.196,0.042 0.264,0.109l0 0.001 0 0 0 0c0.068,0.068 0.109,0.161 0.109,0.263 0,0.103 -0.042,0.196 -0.109,0.264l0 0 0 0 -0.001 0c-0.067,0.068 -0.16,0.109 -0.263,0.109 -0.103,0 -0.196,-0.041 -0.263,-0.109l-0.001 0 0 0 0 0c-0.067,-0.068 -0.109,-0.161 -0.109,-0.264 0,-0.102 0.042,-0.196 0.109,-0.263l0 0 0.001 -0.001 0 0c0.067,-0.067 0.161,-0.109 0.263,-0.109zm1.344 0.13c0.149,0 0.285,0.032 0.385,0.083 0.116,0.059 0.188,0.146 0.188,0.247 0,0.102 -0.072,0.189 -0.188,0.248 -0.007,0.004 -0.015,0.008 -0.023,0.011l0 0.521c0.139,0.056 0.263,0.139 0.366,0.243 0.199,0.199 0.322,0.474 0.322,0.778 0,0.303 -0.123,0.578 -0.322,0.777 -0.199,0.199 -0.474,0.323 -0.778,0.323 -0.303,0 -0.578,-0.124 -0.777,-0.323 -0.199,-0.199 -0.323,-0.474 -0.323,-0.777 0,-0.304 0.124,-0.579 0.323,-0.778 0.127,-0.128 0.286,-0.224 0.464,-0.277l0 -0.487c-0.008,-0.003 -0.016,-0.007 -0.023,-0.011 -0.116,-0.059 -0.188,-0.146 -0.188,-0.248 0,-0.101 0.072,-0.188 0.188,-0.247 0.1,-0.051 0.236,-0.083 0.386,-0.083zm0.207 0.64c-0.064,0.013 -0.134,0.021 -0.207,0.021 -0.074,0 -0.144,-0.008 -0.208,-0.021l0 0.402c0.052,-0.008 0.105,-0.011 0.158,-0.011 0.089,0 0.175,0.01 0.257,0.03l0 -0.421zm0.108 -0.419c-0.08,-0.04 -0.191,-0.065 -0.315,-0.065 -0.125,0 -0.236,0.025 -0.316,0.065 -0.063,0.032 -0.102,0.071 -0.102,0.109 0,0.038 0.039,0.078 0.102,0.11 0.08,0.04 0.191,0.065 0.316,0.065 0.124,0 0.235,-0.025 0.315,-0.065 0.063,-0.032 0.102,-0.072 0.102,-0.11 0,-0.038 -0.039,-0.077 -0.102,-0.109zm2.046 0.013c0.066,0 0.119,0.054 0.119,0.12 0,0.066 -0.053,0.119 -0.119,0.119 -0.066,0 -0.12,-0.053 -0.12,-0.119 0,-0.066 0.054,-0.12 0.12,-0.12zm-0.191 -0.564c0.066,0 0.12,0.054 0.12,0.12 0,0.066 -0.054,0.119 -0.12,0.119 -0.066,0 -0.119,-0.053 -0.119,-0.119 0,-0.066 0.053,-0.12 0.119,-0.12zm-0.404 -0.4c0.066,0 0.12,0.053 0.12,0.119 0,0.066 -0.054,0.12 -0.12,0.12 -0.066,0 -0.119,-0.054 -0.119,-0.12 0,-0.066 0.053,-0.119 0.119,-0.119zm-0.552 -0.163c0.066,0 0.12,0.053 0.12,0.119 0,0.066 -0.054,0.12 -0.12,0.12 -0.066,0 -0.119,-0.054 -0.119,-0.12 0,-0.066 0.053,-0.119 0.119,-0.119zm-0.523 0.093c0.066,0 0.12,0.054 0.12,0.12 0,0.066 -0.054,0.119 -0.12,0.119 -0.066,0 -0.119,-0.053 -0.119,-0.119 0,-0.066 0.053,-0.12 0.119,-0.12zm-0.461 0.356c0.066,0 0.119,0.053 0.119,0.119 0,0.066 -0.053,0.12 -0.119,0.12 -0.066,0 -0.12,-0.054 -0.12,-0.12 0,-0.066 0.054,-0.119 0.12,-0.119zm1.649 2.524l-0.544 0.94c0.062,0.086 0.294,0.319 0.998,0.319 0.704,0 0.937,-0.233 0.999,-0.319l-0.545 -0.94c-0.028,0.019 -0.062,0.037 -0.101,0.051 -0.092,0.033 -0.217,0.054 -0.353,0.054 -0.136,0 -0.261,-0.021 -0.353,-0.054 -0.039,-0.014 -0.073,-0.032 -0.101,-0.051zm0.994 -0.162l0.616 1.063 0.02 0.035 -0.017 0.037c0,0.001 -0.195,0.442 -1.159,0.442 -0.963,0 -1.158,-0.441 -1.159,-0.442l-0.017 -0.037 0.021 -0.035 0.616 -1.063 0 -0.655c-0.127,-0.055 -0.203,-0.134 -0.203,-0.227 0,-0.103 0.094,-0.189 0.246,-0.244 0.128,-0.047 0.304,-0.076 0.496,-0.076 0.193,0 0.368,0.029 0.497,0.076 0.152,0.055 0.246,0.141 0.246,0.244 0,0.093 -0.077,0.172 -0.203,0.227l0 0.655zm-0.156 -0.159l0 -0.446c-0.111,0.027 -0.243,0.043 -0.384,0.043 -0.141,0 -0.273,-0.016 -0.384,-0.043l0 0.446c0.01,-0.004 0.02,-0.008 0.031,-0.012 0.092,-0.034 0.217,-0.054 0.353,-0.054 0.136,0 0.261,0.02 0.353,0.054 0.011,0.004 0.021,0.008 0.031,0.012zm0.047 -0.62c0.004,-0.002 0.007,-0.003 0.011,-0.004l0.002 -0.001c0.088,-0.032 0.143,-0.067 0.143,-0.098 0,-0.031 -0.055,-0.066 -0.143,-0.099 -0.112,-0.04 -0.269,-0.066 -0.444,-0.066 -0.175,0 -0.331,0.026 -0.443,0.066 -0.089,0.033 -0.144,0.068 -0.144,0.099 0,0.031 0.055,0.066 0.144,0.098 0.112,0.041 0.268,0.066 0.443,0.066 0.169,0 0.32,-0.023 0.431,-0.061zm-0.131 0.754c-0.075,-0.028 -0.181,-0.045 -0.3,-0.045 -0.119,0 -0.225,0.017 -0.3,0.045 -0.052,0.019 -0.084,0.035 -0.084,0.046 0,0.01 0.032,0.027 0.084,0.046 0.075,0.027 0.181,0.044 0.3,0.044 0.119,0 0.225,-0.017 0.3,-0.044 0.052,-0.019 0.084,-0.036 0.084,-0.046 0,-0.011 -0.032,-0.027 -0.084,-0.046zm-2.683 -0.257c0.293,0 0.559,0.049 0.752,0.128 0.055,0.022 0.104,0.047 0.147,0.074 -0.047,-0.143 -0.127,-0.271 -0.231,-0.375 -0.171,-0.171 -0.407,-0.277 -0.668,-0.277 -0.26,0 -0.497,0.106 -0.667,0.277 -0.104,0.104 -0.184,0.232 -0.231,0.375 0.043,-0.027 0.092,-0.052 0.146,-0.074 0.194,-0.079 0.46,-0.128 0.752,-0.128zm0.899 0.787c-0.043,0.028 -0.092,0.052 -0.147,0.074 -0.193,0.079 -0.459,0.128 -0.752,0.128 -0.292,0 -0.558,-0.049 -0.752,-0.128 -0.054,-0.022 -0.103,-0.046 -0.146,-0.074 0.047,0.143 0.127,0.272 0.231,0.375 0.17,0.171 0.407,0.277 0.667,0.277 0.261,0 0.497,-0.106 0.668,-0.277 0.104,-0.103 0.184,-0.232 0.231,-0.375zm-0.205 -0.515c-0.176,-0.072 -0.421,-0.117 -0.694,-0.117 -0.272,0 -0.517,0.045 -0.693,0.117 -0.155,0.063 -0.251,0.142 -0.251,0.223 0,0.08 0.096,0.159 0.251,0.222 0.176,0.072 0.421,0.117 0.693,0.117 0.273,0 0.518,-0.045 0.694,-0.117 0.155,-0.063 0.251,-0.142 0.251,-0.222 0,-0.081 -0.096,-0.16 -0.251,-0.223zm2.631 -2.48c0.105,0 0.2,0.043 0.269,0.112l0 0c0.069,0.069 0.112,0.164 0.112,0.269 0,0.105 -0.043,0.2 -0.112,0.269l0 0c-0.069,0.069 -0.164,0.112 -0.269,0.112 -0.105,0 -0.2,-0.043 -0.269,-0.112l0 0c-0.069,-0.069 -0.112,-0.164 -0.112,-0.269 0,-0.105 0.043,-0.2 0.112,-0.269l0 0c0.069,-0.069 0.164,-0.112 0.269,-0.112zm0.16 0.222l-0.001 -0.001c-0.04,-0.04 -0.097,-0.066 -0.159,-0.066 -0.062,0 -0.119,0.026 -0.159,0.066l-0.001 0.001c-0.04,0.04 -0.065,0.097 -0.065,0.159 0,0.062 0.025,0.119 0.065,0.159l0.001 0.001c0.04,0.04 0.097,0.065 0.159,0.065 0.062,0 0.119,-0.025 0.159,-0.065l0.001 -0.001c0.04,-0.04 0.065,-0.097 0.065,-0.159 0,-0.062 -0.025,-0.119 -0.065,-0.159zm-4.06 -0.744c0.103,0 0.196,0.042 0.264,0.109l0 0 0 0.001 0 0c0.068,0.068 0.109,0.161 0.109,0.263 0,0.103 -0.041,0.196 -0.109,0.264l0 0 0 0 -0.001 0c-0.067,0.068 -0.16,0.109 -0.263,0.109 -0.102,0 -0.196,-0.041 -0.263,-0.109l0 0 -0.001 0 0 -0.001c-0.067,-0.067 -0.109,-0.16 -0.109,-0.263 0,-0.102 0.042,-0.196 0.109,-0.263l0.001 -0.001 0 0 0 0c0.068,-0.067 0.161,-0.109 0.263,-0.109zm0.154 0.219c-0.039,-0.039 -0.093,-0.063 -0.154,-0.063 -0.06,0 -0.115,0.024 -0.154,0.063l0 0c-0.039,0.039 -0.063,0.094 -0.063,0.154 0,0.061 0.024,0.115 0.063,0.154l0 0c0.039,0.04 0.094,0.064 0.154,0.064 0.061,0 0.115,-0.024 0.154,-0.064l0 0c0.04,-0.039 0.064,-0.093 0.064,-0.154 0,-0.06 -0.024,-0.115 -0.064,-0.154l0 0zm-0.719 0.964c-0.039,-0.039 -0.094,-0.063 -0.154,-0.063 -0.06,0 -0.115,0.024 -0.154,0.063l0 0c-0.039,0.04 -0.064,0.094 -0.064,0.154 0,0.061 0.025,0.115 0.064,0.154l0 0c0.039,0.04 0.094,0.064 0.154,0.064 0.06,0 0.115,-0.024 0.154,-0.064l0 0c0.039,-0.039 0.064,-0.093 0.064,-0.154 0,-0.06 -0.025,-0.114 -0.064,-0.154l0 0z"/>
 </g>
</svg>
