<?xml version="1.0" encoding="UTF-8"?>
<!DOCTYPE svg PUBLIC "-//W3C//DTD SVG 1.1//EN" "http://www.w3.org/Graphics/SVG/1.1/DTD/svg11.dtd">
<!-- Creator: CorelDRAW 2018 (64 Bit) -->
<svg xmlns="http://www.w3.org/2000/svg" xml:space="preserve" width="124px" height="118px" version="1.1" style="shape-rendering:geometricPrecision; text-rendering:geometricPrecision; image-rendering:optimizeQuality; fill-rule:evenodd; clip-rule:evenodd"
viewBox="0 0 304.776 292.095"
 xmlns:xlink="http://www.w3.org/1999/xlink">
 <defs>
  <style type="text/css">
   <![CDATA[
    .fil0 {fill:#14315D}
    .fil1 {fill:white}
    .fil2 {fill:#000038;fill-rule:nonzero}
    .fil3 {fill:url(#id0);fill-rule:nonzero}
   ]]>
  </style>
  <linearGradient id="id0" gradientUnits="userSpaceOnUse" x1="83.255" y1="136.968" x2="233.451" y2="136.968">
   <stop offset="0" style="stop-opacity:1; stop-color:#0067B0"/>
   <stop offset="1" style="stop-opacity:1; stop-color:#0098DA"/>
  </linearGradient>
 </defs>
 <g id="Camada_x0020_1">
  <metadata id="CorelCorpID_0Corel-Layer"/>
  <circle class="fil0" cx="158.728" cy="146.047" r="146.047"/>
  <circle class="fil1" cx="158.728" cy="146.047" r="122.213"/>
  <circle class="fil1" cx="48.181" cy="54.784" r="48.181"/>
  <path class="fil2" d="M51.049 75.906l-8.923 0 0 -24.445 0.088 -4.013 0.138 -4.398c-1.479,1.489 -2.514,2.456 -3.086,2.919l-4.852 3.905 -4.309 -5.375 13.608 -10.837 7.336 0 0 42.244z"/>
  <path class="fil3" d="M203.593 180.121c1.111,0.781 1.378,2.317 0.597,3.428 -0.782,1.111 -2.318,1.378 -3.429,0.597l-42.773 -30.067 -42.773 30.067c-1.111,0.781 -2.647,0.514 -3.429,-0.597 -0.781,-1.111 -0.514,-2.647 0.597,-3.428l43.14 -30.324 0 -46.797c0,-1.361 1.104,-2.466 2.465,-2.466 1.361,0 2.465,1.105 2.465,2.466l0 46.797 43.14 30.324zm29.858 18.834l0 -3.258 -14.04 0 13.707 -14.018 0 -2.136 -19.202 0 0 3.258 13.375 0 -14.096 14.285 0 1.869 20.256 0zm-77.434 -104.562l3.94 0 0 -7.77 9.851 -11.641 -4.856 0 -6.965 8.224 -6.993 -8.224 -4.827 0 9.85 11.641 0 7.77zm-54.81 104.562l5.051 0 -9.074 -10.04 8.463 -9.372 -4.995 0 -5.827 6.649 -5.854 -6.649 -5.023 0 8.436 9.372 -9.13 10.04 5.133 0 6.438 -7.316 6.382 7.316z"/>
 </g>
</svg>
